PathFileType	4	(X/Y/Z)	C:/Users/beibeiliu/ov580/test_trc/User2\sequence.33_training_dense_right.trc
DataRate	CameraRate	NumFrames	NumMarkers	Units	OrigDataRate	OrigDataStartFrame	OrigNumFrames
120	120	14	19	mm	120	1	105
Frame#	Time	ThumbCMC			ThumbMCP			ThumbIP			ThumbTip			IndexMCP			IndexPIP			IndexTip			MiddleMCP			MiddlePIP			MiddleTip			RingMCP			RingPIP			RingTip			PinkyMCP			PinkyPIP			PinkyTip			BackHand1			BackHand2			BackHand3	
		X0	Y0	Z0	X1	Y1	Z1	X2	Y2	Z2	X3	Y3	Z3	X4	Y4	Z4	X5	Y5	Z5	X6	Y6	Z6	X7	Y7	Z7	X8	Y8	Z8	X9	Y9	Z9	X10	Y10	Z10	X11	Y11	Z11	X12	Y12	Z12	X13	Y13	Z13	X14	Y14	Z14	X15	Y15	Z15	X16	Y16	Z16	X17	Y17	Z17	X18	Y18	Z18	
0	0	101	44.8076	-32.1132	99.4793	67.7104	-57.042	86.8701	88.6667	-81.7747	79.7196	105.302	-96.449	31.1338	47.7346	-82.2185	7.54995	58.6403	-99.5493	-9.87562	68.2619	-114.375	3.54211	45.6883	-55.6697	-6.4992	75.1532	-34.9448	24.9897	74.0931	-7.86297	-0.841483	43.3418	-28.8994	5.98974	65.0463	-6.47913	40.8201	51.8213	-0.627945	0.82087	32.3703	-11.9618	14.8994	54.8614	8.64575	43.977	41.5324	9.49761	46.2983	-1.23058	-32.0709	78.2781	-13.2728	-17.2791	82.6759	15.1944	-42.2265	
1	0.00833333	105.806	40.9841	-40.8978	108.516	58.0392	-60.3414	99.307	79.4129	-90.3157	100.385	97.0029	-105.624	38.3389	50.395	-86.6043	19.2019	62.1257	-106.747	-3.40571	70.5732	-121.524	15.1026	55.9217	-63.5938	8.92725	88.5038	-41.1044	38.7951	81.82	-15.606	7.68039	58.1619	-35.7534	13.185	74.3953	-11.5501	49.0612	58.5655	-7.6489	7.71945	44.5922	-17.117	25.6178	65.5031	2.69542	50.3286	44.3348	-1.84642	46.1718	3.97797	-33.0802	74.7946	-11.5759	-16.5594	82.6843	13.4372	-46.9839	
2	0.0166667	115.18	30.0183	-43.4004	113.999	46.3703	-68.9611	111.165	65.0517	-99.6611	108.54	79.899	-116.384	45.524	37.3531	-96.0382	31.3512	46.4101	-116.41	8.56318	52.3357	-133.263	18.7708	51.8611	-75.5649	15.903	82.9912	-57.5387	45.1564	77.6552	-28.9967	11.9408	51.3404	-46.2773	20.3151	73.2843	-28.9735	51.6381	55.9567	-17.2149	10.5786	43.2664	-29.383	26.7394	63.4142	-10.4821	51.2543	44.6497	-8.81474	47.3945	-2.10432	-38.0237	71.6828	-18.3686	-18.9251	85.8838	2.37586	-48.9662	
3	0.025	117.052	21.4633	-50.658	120.477	35.6539	-73.5884	114.028	50.9672	-107.319	113.673	65.7331	-126.456	55.3029	15.6082	-104.463	35.8467	19.2915	-129.931	15.0068	19.6338	-146.226	20.6427	25.2459	-85.2778	12.2242	60.0268	-71.0103	39.3603	61.915	-43.2924	13.4037	32.9137	-60.9209	20.3113	57.2715	-40.6326	51.4134	44.1772	-29.1646	12.052	23.1199	-41.6326	22.3586	48.5231	-26.2003	52.1557	30.6653	-17.8788	55.7806	-17.5693	-45.7826	80.276	-27.4726	-19.334	92.0357	-6.89004	-56.4352	
4	0.0333333	120.385	13.9203	-56.5899	120.508	26.5066	-78.8655	116.74	38.5185	-112.724	112.692	50.9521	-134.456	61.887	-9.1172	-113.105	49.584	-9.88798	-135.584	28.1073	-14.9753	-154.221	32.9876	-2.79767	-97.5086	12.8641	31.0629	-87.5663	34.4424	43.4294	-60.0896	20.8899	2.17654	-71.5287	19.5002	33.2972	-56.4989	50.8988	27.7126	-38.4982	16.4287	-4.86314	-50.2001	23.3807	27.8847	-37.3519	51.7325	14.8673	-26.8247	67.9929	-34.5511	-47.2994	89.4142	-41.4063	-21.0853	100.236	-21.4389	-53.8596	
5	0.0416667	121.831	14.1557	-58.3509	119.318	24.6739	-80.5262	116.054	35.6335	-110.977	110.858	44.8709	-134.693	79.8736	-21.3002	-118.261	64.7058	-32.1879	-140.477	53.0853	-38.1504	-166.82	46.2675	-27.866	-103.744	16.7086	-3.49916	-99.7507	31.4992	19.2981	-71.9306	30.3038	-21.8745	-82.2241	17.6764	2.36482	-66.8968	47.89	10.8545	-49.7664	25.1312	-29.8094	-59.6647	22.9925	0.0154378	-50.1838	55.3499	-0.249936	-31.794	81.1994	-48.8389	-51.0328	104.746	-44.6982	-26.7472	111.429	-25.4013	-59.124	
6	0.05	120.669	19.3863	-54.8448	120.952	33.7855	-79.4605	114.84	42.7948	-114.281	106.748	51.241	-134.632	98.4169	-23.7948	-121.354	91.5658	-32.5303	-148.5	81.3057	-48.0106	-169.043	68.7762	-38.7707	-113.312	33.45	-25.9611	-109.905	38.2422	-3.18641	-77.2906	48.7767	-46.0985	-89.4848	28.6054	-25.8424	-75.941	51.5557	-9.58645	-53.6333	50.0416	-52.8128	-69.709	32.3266	-26.3711	-55.099	61.2577	-16.0947	-38.2079	108.116	-49.3824	-55.6907	124.967	-39.7361	-28.4412	126.087	-17.3772	-60.3693	
7	0.0583333	114.747	28.6785	-46.9454	109.262	42.0444	-73.7607	101.028	51.5516	-106.321	91.9253	57.5576	-130.011	117.282	-11.5195	-123.675	115.142	-24.0655	-151.526	114.236	-34.6974	-177.552	91.9281	-42.4472	-118.134	55.6253	-42.0775	-114.772	54.4547	-22.9352	-76.824	77.44	-58.4241	-97.291	50.8542	-49.3125	-83.5062	64.1178	-25.3517	-61.4326	82.0096	-66.9915	-78.589	54.0642	-51.1759	-68.2065	70.4291	-30.1268	-43.9525	131.633	-41.983	-63.5602	142.933	-29.235	-27.869	136.482	-1.16293	-57.0914	
8	0.0666667	103.723	27.7582	-45.1165	90.9988	43.8895	-65.3492	80.2577	52.7671	-94.7483	68.4753	59.6477	-117.657	125.71	5.5851	-121.302	129.698	2.4493	-148.55	133.885	-5.49978	-172.163	115.119	-31.1998	-120.424	79.3614	-46.1343	-117.852	70.6069	-35.0659	-85.5652	109.516	-50.3721	-104.092	79.2966	-56.6858	-94.6401	82.9012	-33.7783	-62.8254	111.978	-64.9898	-86.4995	80.9779	-58.3057	-74.9195	87.5036	-41.5319	-49.1978	150.253	-26.7777	-61.3524	152.96	-16.5136	-28.0965	136.552	11.1793	-50.2598	
9	0.075	90.188	28.5504	-35.1129	72.3236	36.7759	-59.0413	57.3549	46.2604	-85.8863	44.1253	51.3261	-109.066	125.742	26.7877	-114.385	126.769	31.7348	-139.368	136.134	30.1828	-169.627	125.593	-9.29108	-123.378	101.202	-37.7431	-122.809	87.8972	-35.4237	-88.8332	130.962	-33.8215	-106.886	104.528	-50.8582	-101.267	98.1282	-34.1271	-68.1943	138.648	-49.9737	-91.0104	107.024	-57.1796	-81.1473	103.625	-37.7691	-55.1805	152.197	-0.63602	-56.5198	154.51	2.16109	-25.0771	132.235	25.2916	-42.7676	
10	0.0833333	82.5049	22.1697	-35.0078	59.1229	29.4545	-56.9032	39.4043	35.0712	-82.716	27.0056	36.1422	-104.527	112.61	37.1128	-106.716	115.679	45.1219	-137.927	125.914	47.0494	-160.963	127.229	1.33049	-119.444	113.154	-30.4743	-125.65	97.9337	-34.9455	-88.623	136.193	-24.4435	-108.038	115.857	-46.0653	-102.064	105.612	-33.5345	-68.5854	147.832	-36.441	-90.8606	119.511	-51.4967	-83.3412	112.629	-34.1579	-53.184	148.316	12.398	-51.1446	147.909	14.865	-17.2314	119.763	29.3911	-38.1053	
11	0.0916667	70.5342	15.874	-28.8427	52.2801	17.9642	-52.5554	28.2597	24.1158	-82.5205	11.6559	24.5298	-101.517	97.74	35.5896	-108.222	101.267	41.8135	-136.064	105.542	46.6944	-163.469	115.758	4.07058	-115.789	104.998	-32.4521	-123.145	91.1115	-37.7284	-86.4218	129.569	-22.5907	-106.77	113.334	-47.743	-99.2906	102.353	-33.4675	-65.3934	137.858	-32.698	-92.591	115.623	-53.2889	-78.7755	112.69	-37.0732	-50.6029	141.741	13.6598	-54.783	138.311	15.8091	-17.8764	105.967	29.7785	-40.9326	
12	0.1	58.9667	9.03644	-28.1633	40.6282	7.31651	-50.4615	18.0112	7.80554	-74.7373	1.58196	6.5873	-94.3504	83.2045	23.744	-111.131	84.7842	24.844	-137.69	83.201	26.7908	-162.01	102.368	-11.7753	-118.175	95.2516	-47.7235	-113.648	86.3005	-46.5972	-77.5313	117.267	-34.486	-103.69	103.893	-59.7763	-88.9102	93.1971	-41.01	-59.7577	130.926	-43.3613	-88.8639	107.888	-60.719	-73.3269	104.731	-40.7926	-47.4694	130.125	10.0334	-54.3292	128.526	11.5635	-19.4171	95.9341	24.6391	-37.6917	
13	0.108333	56.3696	-0.459029	-29.2278	32.1614	-3.47438	-48.1367	11.4816	-5.79961	-73.0513	-7.18767	-10.3116	-87.9296	75.785	0.236304	-109.485	73.508	-2.33288	-138.26	70.9361	-5.49016	-168.114	97.4861	-32.0011	-109.625	85.4487	-66.5679	-104.036	78.0382	-56.2454	-63.0341	109.521	-55.1069	-95.582	91.2219	-72.1835	-80.8553	87.0247	-54.5815	-51.3136	124.78	-57.8045	-79.5746	100.027	-73.3825	-59.1961	96.4394	-50.7093	-41.3126	121.938	-1.82041	-52.3133	122.832	5.36413	-22.074	88.4036	15.7288	-39.4409	
